<svg xmlns="http://www.w3.org/2000/svg" xmlns:xlink="http://www.w3.org/1999/xlink" version="1.1" id="Layer_1" x="0px" y="0px" viewBox="0 0 612 792" enable-background="new 0 0 612 792" xml:space="preserve">
  <g>
    <path d="M31.1 673.5c0-174.2 0-347.3 0-521.5 15.5 0 30.5 0 48.1 0 0 7.9 0 16.4 0 24.7 0.3 18 9.7 28.9 24.4 28.6 14.6 0 23.8-11 24.1-28.9 0-7.9 0-15.8 0-24.7 28.9 0 56.1 0 85.3 0 0 9.4-0.3 18.3 0 27.4 0.6 15.8 10.1 26.2 23.8 26.5 14.3 0.3 24.4-10.4 25-26.8 0.3-8.5 0-17.1 0-26.8 26.2 0 51.5 0 79.2 0 0 8.2 0 16.4 0 24.7 0.3 17.7 9.7 28.9 24.7 28.6 14.6 0 23.8-11.3 24.1-28.9 0-7.6 0-15.2 0-24.1 26.2 0 51.8 0 79.2 0 0 8.2 0 16.1 0 24.1 0.3 18 9.4 28.9 24.1 29.2 14.6 0.3 24.4-10.7 24.7-28.6 0.3-7.9 0-16.1 0-25 20.7 0 39.6 0 59.7 0 0 173.6 0 347 0 521.5C396 673.5 214.2 673.5 31.1 673.5zM50 328.1c0 110.3 0 219 0 328.1 144.4 0 287.3 0 428.3 0 28-27.7 54.8-53.9 81-79.8 0-82.9 0-165.4 0-248.3C389 328.1 220.2 328.1 50 328.1zM294.9 252.5c-71.6 0-142 0-212.3 0 0 9.1 0 17.1 0 25.6 71 0 141.3 0 212.3 0C294.9 269.6 294.9 261.7 294.9 252.5zM559.6 609.8c-15.2 15.2-31.1 31.1-46 46 13.4 0 29.2 0 46 0C559.6 639.1 559.6 623.3 559.6 609.8z"/>
    <path d="M505.7 152.3c0 9.1 0 18.3 0 27.4 0 7.6-3.7 13.1-11.6 13.4 -8.8 0.3-12.5-5.5-12.5-14 0-18.9 0-37.5 0-56.4 0-8.2 3.7-14.3 12.5-14 8.8 0.3 11.9 6.4 11.9 14.6C505.7 133.1 505.7 142.9 505.7 152.3L505.7 152.3z"/>
    <path d="M377.7 150.8c0 9.7 0.3 19.2 0 28.9 -0.3 8.2-4 14-12.8 13.7 -7.9-0.3-11.3-6.1-11.3-13.7 0-19.2 0-38.7 0-57.9 0-7.6 4.3-12.8 11.9-12.8 7.9 0 11.9 5.2 11.9 12.8C377.7 131.3 377.7 141 377.7 150.8z"/>
    <path d="M91.4 151.1c0-9.1 0-18.3 0-27.4 0-7.9 3-14.3 11.9-14.6 8.8-0.3 12.5 5.8 12.5 14 0 18.9 0 37.5 0 56.4 0 8.2-3.7 14.3-12.5 14 -8.8-0.6-11.9-7-11.9-14.9C91.4 169.4 91.4 160.2 91.4 151.1z"/>
    <path d="M520 365.2c0 64.9 0 128.6 0 193.4 -22.8 0-45.1 0-68.8 0 0 20.4 0 39.9 0 60.3 -121.5 0-241.6 0-362.2 0 0-84.7 0-168.8 0-253.8C232.4 365.2 375.6 365.2 520 365.2zM227.9 560.2c-19.8 0-38.1 0-56.7 0 0 16.1 0 31.1 0 46.6 19.2 0 37.5 0 56.7 0C227.9 591.3 227.9 576.3 227.9 560.2zM297.6 560.2c-19.2 0-37.5 0-56.1 0 0 16.1 0 31.7 0 46.6 19.5 0 37.8 0 56.1 0C297.6 590.7 297.6 575.4 297.6 560.2zM311.6 559.9c0 16.1 0 31.4 0 46.9 19.2 0 37.8 0 55.7 0 0-16.4 0-31.7 0-46.9C348.2 559.9 330.2 559.9 311.6 559.9zM381.1 606.8c19.8 0 38.1 0 56.7 0 0-16.4 0-31.7 0-46.6 -19.5 0-37.8 0-56.7 0C381.1 576.3 381.1 591 381.1 606.8zM157.5 607.1c0-16.8 0-31.7 0-47.2 -19.2 0-37.5 0-56.1 0 0 16.1 0 31.7 0 47.2C120.6 607.1 138.6 607.1 157.5 607.1zM507.8 499.3c-19.5 0-38.1 0-56.1 0 0 16.4 0 31.7 0 46.9 19.2 0 37.2 0 56.1 0C507.8 530.3 507.8 515.4 507.8 499.3zM437.8 546.2c0-16.8 0-31.7 0-47.2 -19.2 0-37.5 0-56.1 0 0 16.4 0 31.7 0 47.2C400.9 546.2 418.9 546.2 437.8 546.2zM311.3 545.9c19.5 0 37.8 0 56.1 0 0-16.4 0-31.7 0-46.9 -19.2 0-37.2 0-56.1 0C311.3 514.8 311.3 529.7 311.3 545.9zM297.6 499.3c-19.5 0-37.8 0-56.1 0 0 16.4 0 31.7 0 46.9 19.2 0 37.2 0 56.1 0C297.6 530.3 297.6 515.4 297.6 499.3zM171.2 546.2c19.8 0 37.8 0 56.4 0 0-16.1 0-31.4 0-46.9 -19.2 0-37.8 0-56.4 0C171.2 515.1 171.2 530.3 171.2 546.2zM157.8 499.3c-19.5 0-37.8 0-56.1 0 0 16.4 0 31.7 0 46.9 19.2 0 37.2 0 56.1 0C157.8 530.3 157.8 515.4 157.8 499.3zM452.1 437.7c0 15.8 0 31.4 0 47.5 18.9 0 37.2 0 55.4 0 0-16.4 0-31.7 0-47.5C488.6 437.7 471 437.7 452.1 437.7zM437.4 485.6c0-16.8 0-32.3 0-47.5 -19.2 0-37.2 0-55.7 0 0 16.1 0 31.4 0 47.5C400.6 485.6 418.6 485.6 437.4 485.6zM311.6 438c0 16.8 0 32 0 46.9 19.5 0 37.8 0 56.1 0 0-16.1 0-31.4 0-46.9C348.8 438 330.8 438 311.6 438zM241.6 438c0 16.4 0 32 0 46.9 19.5 0 37.8 0 56.1 0 0-16.1 0-31.1 0-46.9C279 438 260.8 438 241.6 438zM171.5 438c0 16.4 0 32 0 46.9 19.5 0 37.8 0 56.1 0 0-16.1 0-31.1 0-46.9C209 438 190.7 438 171.5 438zM157.5 485.6c0-16.8 0-31.7 0-47.2 -19.2 0-37.5 0-56.1 0 0 16.1 0 31.7 0 47.2C120.6 485.6 138.6 485.6 157.5 485.6zM508.1 377.4c-19.8 0-38.1 0-56.7 0 0 16.1 0 31.1 0 46.6 19.2 0 37.5 0 56.7 0C508.1 408.5 508.1 393.6 508.1 377.4zM438.1 377.4c-19.8 0-38.1 0-56.1 0 0 16.4 0 32 0 46.9 19.2 0 37.5 0 56.1 0C438.1 408.5 438.1 393.6 438.1 377.4zM367.4 424.3c0-16.4 0-32 0-46.9 -19.5 0-37.8 0-56.1 0 0 16.1 0 31.1 0 46.9C330.2 424.3 348.2 424.3 367.4 424.3zM241.6 377.1c0 16.4 0 31.7 0 46.9 19.5 0 37.8 0 56.1 0 0-16.1 0-31.1 0-46.9C279 377.1 261.1 377.1 241.6 377.1zM227.9 377.1c-19.8 0-37.8 0-56.4 0 0 16.1 0 31.4 0 46.9 19.2 0 37.8 0 56.4 0C227.9 408.2 227.9 393.3 227.9 377.1zM158.1 377.4c-19.8 0-38.1 0-56.7 0 0 16.4 0 31.7 0 46.6 19.5 0 37.8 0 56.7 0C158.1 408.2 158.1 393.6 158.1 377.4z"/>
    <path d="M249.5 152.3c0 9.1 0 18.3 0 27.4 0 7.6-3.7 13.1-11.6 13.4 -8.8 0.3-12.5-5.5-12.5-14 0-18.9 0-37.5 0-56.4 0-8.2 3.7-14.3 12.5-14 8.8 0.3 11.9 6.4 11.9 14.6C249.5 133.1 249.5 142.9 249.5 152.3L249.5 152.3z"/>
  </g>
</svg>