<svg xmlns="http://www.w3.org/2000/svg" xmlns:xlink="http://www.w3.org/1999/xlink" version="1.1" baseProfile="tiny" id="Layer_1" x="0px" y="0px" viewBox="155 -0.5 299 92" xml:space="preserve">
<g>
	<path fill="#414042" d="M412.2 23.6v0.9V51h-10.4c-1.1 0-2.1-0.4-2.9-1.2s-1.2-1.7-1.2-2.9V29.6h-6.8v17.2c0 3 1.1 5.7 3.2 7.8 s4.7 3.2 7.8 3.2h10.4v17.9c0 1.1-0.4 2-1.2 2.9c-0.8 0.8-1.7 1.2-2.9 1.2H306.8c-8.5-1.1-15.8-5.4-21.1-10.8 c-6.3-6.3-10.6-14.9-10.6-25.8c0-10.9 4.4-19.5 10.6-25.8s13.9-10.6 25.2-10.6c10.2 0 17.9 4.8 23.7 10.6 c6.3 6.2 10.3 16.9 10.3 25.8c0 3.2-1.1 5.8-3 7.6c-1.7 1.7-5.4 3.3-8.5 3.3c-3.6 0-5.4-2-6.6-3.2c-0.7-0.6-1.1-2.2-1.4-3.8 c-0.2-1.6-0.3-3.2-0.3-4.1c0-4.7-1.6-8.8-4.8-12.3s-7.2-5.1-11.9-5.1c-4.7 0-8.7 1.7-11.8 5.1s-4.7 7.5-4.7 12.3s1.6 8.8 4.7 12.2 c3.2 3.3 7.1 5.1 11.8 5.1c4.2 0 7.9-1.4 11.1-4.3c3.5 3 9.5 5.4 13.9 5.4c4.8 0 10.3-1.7 13.7-5.1c3.3-3.3 5.1-7.6 5.1-13.2 c0-12.1-3.9-22.5-12.4-31c-8.1-8.1-17.2-12.8-28.9-12.8c-12.1 0-22 3.9-30.5 12.4c-8.5 8.5-12.6 19.1-12.6 31.3 c0 12.1 4.2 22.5 12.7 31c2.2 2.2 4.4 3.9 6.8 5.5H266c-0.8-1.6-2-2.8-3.6-3.6V40.5c0-3-1.1-5.7-3.2-7.8s-4.7-3.2-7.8-3.2h-6.9 c-0.8-1.6-2-2.8-3.6-3.6l0.1-18.4h-6.8V26c-1.5 0.8-2.7 2-3.5 3.5h-12.3c-3 0-5.7 1.1-7.8 3.2s-3.2 4.7-3.2 7.8v6.3 c0 3 1.1 5.7 3.2 7.8s4.7 3.2 7.7 3.2c0 0 0 0 0.1 0h13.4v-6.8h-13.4c-1.1 0-2-0.4-2.9-1.2c-0.8-0.8-1.2-1.7-1.2-2.9v-6.3 c0-1.1 0.4-2.1 1.2-2.9c0.8-0.8 1.7-1.2 2.9-1.2h12.3c0.7 1.6 2 2.8 3.5 3.5v17.8h6.8v-0.9V40c1.6-0.8 2.9-2 3.6-3.6h6.8 c1.1 0 2.1 0.4 2.9 1.2s1.2 1.7 1.2 2.9v35.7c-2.6 1.3-4.4 3.9-4.4 6.9c0 4.3 3.5 7.8 7.8 7.8c3 0 5.7-1.8 6.9-4.3H408 c0 0 0 0 0.1 0c3 0 5.7-1.1 7.7-3.2c2.1-2.1 3.2-4.7 3.2-7.8V23.6H412.2z M315 50.7c-1.8 2.1-3.9 3-6.6 3s-4.8-1-6.5-3 c-1.7-2.1-2.6-4.5-2.6-7.3s0.8-5.3 2.6-7.4c1.7-2.1 3.9-3.1 6.5-3.2l0 0c2.7 0 4.8 1 6.6 3.2c1.8 2.2 2.7 4.6 2.7 7.4 C317.6 46.2 316.8 48.6 315 50.7z M237.7 35.4c-1.3 0-2.3-1.1-2.3-2.3c0-1.3 1.1-2.3 2.3-2.3c1.3 0 2.3 1 2.3 2.3 C240 34.3 239 35.4 237.7 35.4z M259.1 85.5c-1.3 0-2.3-1.1-2.3-2.3c0-1.3 1.1-2.3 2.3-2.3c1.3 0 2.3 1 2.3 2.3 S260.3 85.5 259.1 85.5z"/>
	<path fill="#414042" d="M204.8 46.5v-5.9c0-3-1.1-5.7-3.2-7.8s-4.7-3.2-7.8-3.2h-6.3c-3 0-5.7 1.1-7.8 3.2s-3.2 4.7-3.2 7.8v6.3 c0 0.1 0 0.3 0 0.4c-1.7 0.8-3 2.1-3.8 3.7h-6.9c-1.1 0-2.1-0.4-2.9-1.2s-1.2-1.7-1.2-2.9V36.4h9.5v-6.8h-9.5v-10H155v27.3 c0 3 1.1 5.7 3.2 7.8s4.7 3.2 7.7 3.2c0 0 0 0 0.1 0h7c1.3 2.6 3.9 4.3 6.9 4.3s5.7-1.8 6.9-4.4c0.2 0 0.5 0.1 0.7 0.1 c0 0 0 0 0.1 0h7.5V51h-7.5c-0.3 0-0.5 0-0.8-0.1c-0.7-1.4-1.9-2.6-3.3-3.4c-0.1-0.2-0.1-0.4-0.1-0.7v-0.4H204.8z M179.8 56.7 c-1.3 0-2.3-1.1-2.3-2.3c0-1.3 1.1-2.3 2.3-2.3c1.3 0 2.3 1 2.3 2.3C182.1 55.6 181.1 56.7 179.8 56.7z M183.3 39.8l0.1-0.2 c0.2-0.8 0.5-1.4 1.2-2.1c0.9-0.8 1.9-1.3 3-1.3h6.3c1.2 0 2.2 0.4 3 1.3c0.6 0.7 1 1.3 1.2 2.1l0.1 0.2h-14.6H183.3z"/>
	<path fill="#414042" d="M449.8 47c0-0.1 0-0.1 0-0.1V29.6h-0.9H443v16.1c-2.5 0.8-4.5 2.7-5.2 5.2h-5.2c-1.1 0-2-0.4-2.9-1.2 c-0.8-0.8-1.2-1.7-1.2-2.9V23.6h-6.8v23.2c0 3 1.1 5.7 3.2 7.8s4.7 3.2 7.8 3.2h6.3c0 0 0 0 0.1 0h0.1c1.4 1.9 3.7 3.2 6.2 3.2 c4.3 0 7.8-3.5 7.8-7.8C452.9 50.7 451.7 48.3 449.8 47z M445.2 55.6c-1.3 0-2.3-1.1-2.3-2.3c0-1.3 1-2.3 2.3-2.3s2.3 1 2.3 2.3 C447.6 54.5 446.5 55.6 445.2 55.6z"/>
	<path fill="#414042" d="M385.2 32.8c-2.1-2.1-4.7-3.2-7.8-3.2h-6.3c-0.1 0-0.1 0-0.1 0c-1.4-1.9-3.6-3.1-6.2-3.1 c-4.3 0-7.8 3.5-7.8 7.8c0 2.6 1.3 4.8 3.2 6.2v0.1v11.2h6.8V41.6c2.5-0.7 4.5-2.7 5.3-5.3h5.2c1.1 0 2 0.4 2.9 1.2 c0.8 0.8 1.2 1.7 1.2 2.9v17.2h6.8v-0.9V40.5C388.3 37.6 387.2 34.9 385.2 32.8z M364.8 36.6c-1.3 0-2.3-1-2.3-2.3 c0-1.3 1.1-2.3 2.3-2.3c1.3 0 2.3 1 2.3 2.3C367.1 35.5 366 36.6 364.8 36.6z"/>
</g>
</svg>
