<svg xmlns="http://www.w3.org/2000/svg" xmlns:xlink="http://www.w3.org/1999/xlink" version="1.1" x="0px" y="0px" viewBox="12 268.9 610.4 187.5" enable-background="new 12 268.9 610.4 187.5" xml:space="preserve"><g><path d="M538.4 318.7v1.8v54.2h-21.3c-2.3 0-4.3-0.8-5.9-2.5c-1.6-1.6-2.5-3.5-2.5-5.9V331h-13.9v35.2 c0 6.1 2.3 11.7 6.5 16s9.6 6.5 16 6.5h21.3v36.6c0 2.3-0.8 4.1-2.5 5.9c-1.6 1.6-3.5 2.5-5.9 2.5H322.7 c-17.4-2.3-32.3-11.1-43.2-22.1c-12.9-12.9-21.7-30.5-21.7-52.8s9-39.9 21.7-52.8c12.7-12.9 28.5-21.7 51.6-21.7 c20.9 0 36.6 9.8 48.5 21.7c12.9 12.7 21.1 34.6 21.1 52.8c0 6.5-2.3 11.9-6.1 15.6c-3.5 3.5-11.1 6.8-17.4 6.8 c-7.4 0-11.1-4.1-13.5-6.5c-1.4-1.2-2.3-4.5-2.9-7.8c-0.4-3.3-0.6-6.5-0.6-8.4c0-9.6-3.3-18-9.8-25.2s-14.7-10.4-24.4-10.4 c-9.6 0-17.8 3.5-24.2 10.4s-9.6 15.4-9.6 25.2c0 9.8 3.3 18 9.6 25c6.5 6.8 14.5 10.4 24.2 10.4c8.6 0 16.2-2.9 22.7-8.8 c7.2 6.1 19.4 11.1 28.5 11.1c9.8 0 21.1-3.5 28-10.4c6.8-6.8 10.4-15.6 10.4-27c0-24.8-8-46.1-25.4-63.5 c-16.6-16.6-35.2-26.2-59.2-26.2c-24.8 0-45 8-62.4 25.4c-17.4 17.4-25.8 39.1-25.8 64.1c0 24.8 8.6 46.1 26 63.5 c4.5 4.5 9 8 13.9 11.3h-43.6c-1.6-3.3-4.1-5.7-7.4-7.4v-72.5c0-6.1-2.3-11.7-6.5-16c-4.3-4.3-9.6-6.5-16-6.5h-14.1 c-1.6-3.3-4.1-5.7-7.4-7.4l0.2-37.7h-13.9v37.9c-3.1 1.6-5.5 4.1-7.2 7.2h-25.2c-6.1 0-11.7 2.3-16 6.5c-4.3 4.3-6.5 9.6-6.5 16 v12.9c0 6.1 2.3 11.7 6.5 16c4.3 4.3 9.6 6.5 15.8 6.5c0 0 0 0 0.2 0h27.4v-13.9h-27.4c-2.3 0-4.1-0.8-5.9-2.5 c-1.6-1.6-2.5-3.5-2.5-5.9v-12.9c0-2.3 0.8-4.3 2.5-5.9c1.6-1.6 3.5-2.5 5.9-2.5h25.2c1.4 3.3 4.1 5.7 7.2 7.2v36.4H188v-1.8v-34.6 c3.3-1.6 5.9-4.1 7.4-7.4h13.9c2.3 0 4.3 0.8 5.9 2.5c1.6 1.6 2.5 3.5 2.5 5.9v73.1c-5.3 2.7-9 8-9 14.1c0 8.8 7.2 16 16 16 c6.1 0 11.7-3.7 14.1-8.8h291.1c0 0 0 0 0.2 0c6.1 0 11.7-2.3 15.8-6.5c4.3-4.3 6.5-9.6 6.5-16V318.7H538.4z M339.5 374.1 c-3.7 4.3-8 6.1-13.5 6.1c-5.5 0-9.8-2-13.3-6.1c-3.5-4.3-5.3-9.2-5.3-14.9c0-5.7 1.6-10.8 5.3-15.1c3.5-4.3 8-6.3 13.3-6.5l0 0 c5.5 0 9.8 2 13.5 6.5c3.7 4.5 5.5 9.4 5.5 15.1C344.8 364.9 343.2 369.8 339.5 374.1z M181.3 342.8c-2.7 0-4.7-2.3-4.7-4.7 c0-2.7 2.3-4.7 4.7-4.7c2.7 0 4.7 2 4.7 4.7C186 340.6 183.9 342.8 181.3 342.8z M225.1 445.4c-2.7 0-4.7-2.3-4.7-4.7 c0-2.7 2.3-4.7 4.7-4.7c2.7 0 4.7 2 4.7 4.7C229.8 443.3 227.5 445.4 225.1 445.4z"/><path d="M113.9 365.5v-12.1c0-6.1-2.3-11.7-6.5-16c-4.3-4.3-9.6-6.5-16-6.5H78.5c-6.1 0-11.7 2.3-16 6.5 c-4.3 4.3-6.5 9.6-6.5 16v12.9c0 0.2 0 0.6 0 0.8c-3.5 1.6-6.1 4.3-7.8 7.6H34.1c-2.3 0-4.3-0.8-5.9-2.5c-1.6-1.6-2.5-3.5-2.5-5.9 v-21.5h19.4V331H25.7v-20.5H12v55.9c0 6.1 2.3 11.7 6.5 16c4.3 4.3 9.6 6.5 15.8 6.5c0 0 0 0 0.2 0h14.3c2.7 5.3 8 8.8 14.1 8.8 s11.7-3.7 14.1-9c0.4 0 1 0.2 1.4 0.2c0 0 0 0 0.2 0h15.4v-14.1H78.7c-0.6 0-1 0-1.6-0.2c-1.4-2.9-3.9-5.3-6.8-7 c-0.2-0.4-0.2-0.8-0.2-1.4v-0.8h43.8V365.5z M62.8 386.4c-2.7 0-4.7-2.3-4.7-4.7c0-2.7 2.3-4.7 4.7-4.7c2.7 0 4.7 2 4.7 4.7 C67.5 384.2 65.4 386.4 62.8 386.4z M69.9 351.8l0.2-0.4c0.4-1.6 1-2.9 2.5-4.3c1.8-1.6 3.9-2.7 6.1-2.7h12.9 c2.5 0 4.5 0.8 6.1 2.7c1.2 1.4 2 2.7 2.5 4.3l0.2 0.4H70.5H69.9z" /><path d="M615.4 366.6c0-0.2 0-0.2 0-0.2V331h-1.8h-12.1v33c-5.1 1.6-9.2 5.5-10.6 10.6h-10.6 c-2.3 0-4.1-0.8-5.9-2.5c-1.6-1.6-2.5-3.5-2.5-5.9v-47.5h-13.9v47.5c0 6.1 2.3 11.7 6.5 16s9.6 6.5 16 6.5h12.9c0 0 0 0 0.2 0h0.2 c2.9 3.9 7.6 6.5 12.7 6.5c8.8 0 16-7.2 16-16C621.7 374.1 619.3 369.2 615.4 366.6z M606 384.2c-2.7 0-4.7-2.3-4.7-4.7 c0-2.7 2-4.7 4.7-4.7c2.7 0 4.7 2 4.7 4.7C610.9 381.9 608.6 384.2 606 384.2z" /><path d="M483.2 337.5c-4.3-4.3-9.6-6.5-16-6.5h-12.9c-0.2 0-0.2 0-0.2 0c-2.9-3.9-7.4-6.3-12.7-6.3 c-8.8 0-16 7.2-16 16c0 5.3 2.7 9.8 6.5 12.7v0.2v22.9h13.9v-20.9c5.1-1.4 9.2-5.5 10.8-10.8h10.6c2.3 0 4.1 0.8 5.9 2.5 c1.6 1.6 2.5 3.5 2.5 5.9v35.2h13.9v-1.8v-33.2C489.5 347.3 487.3 341.8 483.2 337.5z M441.4 345.3c-2.7 0-4.7-2-4.7-4.7 s2.3-4.7 4.7-4.7c2.7 0 4.7 2 4.7 4.7C446.1 343 443.9 345.3 441.4 345.3z"/></g></svg>